<svg id="Layer_1" data-name="Layer 1" xmlns="http://www.w3.org/2000/svg" viewBox="0 0 20.01 18.48">
    <path fill="currentColor"
        d="M18.17,1.85A6.27,6.27,0,0,0,10,1.24a6.27,6.27,0,0,0-8.16,9.48L9.3,18.18a1,1,0,0,0,1.42,0h0l7.45-7.46a6.27,6.27,0,0,0,0-8.87ZM16.76,9.3,10,16.05,3.26,9.3A4.26,4.26,0,0,1,8.8,2.85l-1.71,4a1,1,0,0,0,0,.83,1,1,0,0,0,.65.53l2.77.7L9.11,11.8a1,1,0,0,0,.46,1.34h0a1,1,0,0,0,.44.1,1,1,0,0,0,.9-.56l2-4a1,1,0,0,0,0-.86,1.05,1.05,0,0,0-.67-.55L9.41,6.56l1.45-3.39A4.26,4.26,0,1,1,16.78,9.3h0Z" />
</svg>