<?xml version="1.0" encoding="utf-8"?>
<!-- Generator: Adobe Illustrator 25.2.3, SVG Export Plug-In . SVG Version: 6.00 Build 0)  -->
<svg version="1.1" id="Layer_1" xmlns="http://www.w3.org/2000/svg" xmlns:xlink="http://www.w3.org/1999/xlink" x="0px"
    y="0px" viewBox="0 0 512 430.4" style="enable-background:new 0 0 512 430.4;" xml:space="preserve">
    <g>
        <g>
            <path fill="currentColor" d="M378.4,10.2C315.7,10.2,263.9,57,256,117.6C248.1,57,196.3,10.2,133.6,10.2c-68.2,0-123.4,55.3-123.4,123.4
			S92.1,271.8,129,303.5c34.5,29.6,127,116.7,127,116.7s92.6-87.1,127-116.7c36.9-31.7,118.8-101.7,118.8-169.9
			S446.5,10.2,378.4,10.2z" />
            <path d="M256,430.4c-2.5,0-5-0.9-7-2.8c-0.9-0.9-92.8-87.3-126.7-116.4l-0.4-0.3C82.4,277,0,206.2,0,133.6C0,59.9,59.9,0,133.6,0
			c54,0,101.5,32.5,122.4,79.9C276.9,32.5,324.4,0,378.4,0C452.1,0,512,59.9,512,133.6c0,72.6-82.4,143.3-122,177.3l-0.4,0.3
			C355.8,340.3,263.9,426.8,263,427.6C261,429.5,258.5,430.4,256,430.4z M133.6,20.4c-62.4,0-113.2,50.8-113.2,113.2
			c0,63.3,80.5,132.3,114.9,161.8l0.4,0.3c28.7,24.6,98.1,89.6,120.4,110.5c22.3-20.9,91.7-85.8,120.4-110.5l0.4-0.3
			c34.4-29.5,114.9-98.6,114.9-161.8c0-62.4-50.8-113.2-113.2-113.2c-56.7,0-105,42.4-112.3,98.5c-0.7,5.1-5,8.9-10.1,8.9
			c-5.1,0-9.5-3.8-10.1-8.9C238.6,62.8,190.3,20.4,133.6,20.4z" />
        </g>
        <g>
            <path d="M257,379.4c-2.5,0-5-0.9-7-2.7c-27.5-25.7-77-71.6-99.9-91.3l-0.3-0.3c-3.8-3.3-8.2-7-12.9-11.2c-4.2-3.7-4.7-10.2-1-14.4
			c3.7-4.2,10.2-4.7,14.4-1c4.6,4,8.9,7.8,12.8,11l0.3,0.3c22,18.9,66.8,60.4,100.5,91.8c4.1,3.8,4.3,10.3,0.5,14.4
			C262.5,378.3,259.8,379.4,257,379.4z" />
        </g>
        <g>
            <path d="M115.5,250.7c-2.6,0-5.1-1-7.1-2.9c-6.7-6.5-13.1-13.1-19-19.4c-3.8-4.1-3.6-10.6,0.5-14.4c4.1-3.8,10.6-3.6,14.4,0.5
			c5.6,6,11.7,12.3,18.2,18.6c4,3.9,4.1,10.4,0.2,14.4C120.9,249.7,118.2,250.7,115.5,250.7z" />
        </g>
    </g>
</svg>